<mxfile host="app.diagrams.net" agent="Mozilla/5.0 (Windows NT 10.0; Win64; x64) AppleWebKit/537.36 (KHTML, like Gecko) Chrome/137.0.0.0 Safari/537.36 Edg/137.0.0.0" version="27.1.6">
  <diagram name="Página-1" id="26lVlbNtsUEqQncj-INb">
    <mxGraphModel grid="1" page="1" gridSize="10" guides="1" tooltips="1" connect="1" arrows="1" fold="1" pageScale="1" pageWidth="827" pageHeight="1169" math="0" shadow="0">
      <root>
        <mxCell id="0" />
        <mxCell id="1" parent="0" />
        <mxCell id="wuD5THcL1bPiLJI8QyXi-1" value="CU010 Visualizar detalles de evento" style="swimlane;childLayout=stackLayout;resizeParent=1;resizeParentMax=0;startSize=20;horizontal=0;horizontalStack=1;" vertex="1" parent="1">
          <mxGeometry x="10" y="30" width="710" height="445" as="geometry">
            <mxRectangle x="200" y="80" width="40" height="50" as="alternateBounds" />
          </mxGeometry>
        </mxCell>
        <mxCell id="wuD5THcL1bPiLJI8QyXi-4" value="Usuario" style="swimlane;startSize=20;" vertex="1" parent="wuD5THcL1bPiLJI8QyXi-1">
          <mxGeometry x="20" width="290" height="445" as="geometry" />
        </mxCell>
        <mxCell id="wuD5THcL1bPiLJI8QyXi-5" value="" style="ellipse;html=1;shape=startState;fillColor=#000000;strokeColor=#ff0000;fillStyle=auto;" vertex="1" parent="wuD5THcL1bPiLJI8QyXi-4">
          <mxGeometry x="28" y="55" width="30" height="30" as="geometry" />
        </mxCell>
        <mxCell id="wuD5THcL1bPiLJI8QyXi-7" value="Pulsa el apartado &quot;Eventos&quot;" style="rounded=1;whiteSpace=wrap;html=1;arcSize=40;fontColor=#000000;fillColor=#ffffc0;strokeColor=#ff0000;" vertex="1" parent="wuD5THcL1bPiLJI8QyXi-4">
          <mxGeometry x="130" y="50" width="150" height="40" as="geometry" />
        </mxCell>
        <mxCell id="wuD5THcL1bPiLJI8QyXi-8" value="" style="edgeStyle=orthogonalEdgeStyle;html=1;verticalAlign=bottom;endArrow=open;endSize=8;strokeColor=#ff0000;rounded=0;exitX=1;exitY=0.5;exitDx=0;exitDy=0;" edge="1" parent="wuD5THcL1bPiLJI8QyXi-4" source="wuD5THcL1bPiLJI8QyXi-5">
          <mxGeometry relative="1" as="geometry">
            <mxPoint x="130" y="70" as="targetPoint" />
            <mxPoint x="82" y="75" as="sourcePoint" />
            <Array as="points">
              <mxPoint x="130" y="70" />
            </Array>
          </mxGeometry>
        </mxCell>
        <mxCell id="wuD5THcL1bPiLJI8QyXi-11" value="Pulsar botón &quot;ver evento&quot;" style="rounded=1;whiteSpace=wrap;html=1;arcSize=40;fontColor=#000000;fillColor=#ffffc0;strokeColor=#ff0000;" vertex="1" parent="wuD5THcL1bPiLJI8QyXi-4">
          <mxGeometry x="70" y="270" width="120" height="50" as="geometry" />
        </mxCell>
        <mxCell id="wuD5THcL1bPiLJI8QyXi-30" style="edgeStyle=orthogonalEdgeStyle;rounded=0;orthogonalLoop=1;jettySize=auto;html=1;exitX=0;exitY=0.5;exitDx=0;exitDy=0;entryX=0.5;entryY=0;entryDx=0;entryDy=0;strokeColor=light-dark(#ff0000, #ededed);" edge="1" parent="wuD5THcL1bPiLJI8QyXi-1" source="wuD5THcL1bPiLJI8QyXi-21" target="wuD5THcL1bPiLJI8QyXi-11">
          <mxGeometry relative="1" as="geometry" />
        </mxCell>
        <mxCell id="wuD5THcL1bPiLJI8QyXi-31" style="edgeStyle=orthogonalEdgeStyle;rounded=0;orthogonalLoop=1;jettySize=auto;html=1;exitX=1;exitY=0.5;exitDx=0;exitDy=0;strokeColor=light-dark(#ff0000, #ededed);" edge="1" parent="wuD5THcL1bPiLJI8QyXi-1" source="wuD5THcL1bPiLJI8QyXi-11" target="wuD5THcL1bPiLJI8QyXi-27">
          <mxGeometry relative="1" as="geometry" />
        </mxCell>
        <mxCell id="wuD5THcL1bPiLJI8QyXi-15" value="Sistema" style="swimlane;startSize=20;" vertex="1" parent="wuD5THcL1bPiLJI8QyXi-1">
          <mxGeometry x="310" width="400" height="445" as="geometry">
            <mxRectangle x="310" width="40" height="720" as="alternateBounds" />
          </mxGeometry>
        </mxCell>
        <mxCell id="wuD5THcL1bPiLJI8QyXi-29" style="edgeStyle=orthogonalEdgeStyle;rounded=0;orthogonalLoop=1;jettySize=auto;html=1;exitX=0;exitY=0.5;exitDx=0;exitDy=0;entryX=1;entryY=0.5;entryDx=0;entryDy=0;strokeColor=light-dark(#ff0000, #ededed);" edge="1" parent="wuD5THcL1bPiLJI8QyXi-15" source="wuD5THcL1bPiLJI8QyXi-16" target="wuD5THcL1bPiLJI8QyXi-21">
          <mxGeometry relative="1" as="geometry" />
        </mxCell>
        <mxCell id="wuD5THcL1bPiLJI8QyXi-16" value="Mostrar apartado" style="rounded=1;whiteSpace=wrap;html=1;arcSize=40;fontColor=#000000;fillColor=#ffffc0;strokeColor=#ff0000;" vertex="1" parent="wuD5THcL1bPiLJI8QyXi-15">
          <mxGeometry x="250" y="130" width="110" height="50" as="geometry" />
        </mxCell>
        <mxCell id="wuD5THcL1bPiLJI8QyXi-19" value="" style="ellipse;html=1;shape=endState;fillColor=#000000;strokeColor=#ff0000;" vertex="1" parent="wuD5THcL1bPiLJI8QyXi-15">
          <mxGeometry x="148" y="390" width="30" height="30" as="geometry" />
        </mxCell>
        <mxCell id="wuD5THcL1bPiLJI8QyXi-20" style="edgeStyle=orthogonalEdgeStyle;rounded=0;orthogonalLoop=1;jettySize=auto;html=1;exitX=0.5;exitY=1;exitDx=0;exitDy=0;" edge="1" parent="wuD5THcL1bPiLJI8QyXi-15">
          <mxGeometry relative="1" as="geometry">
            <mxPoint x="86" y="360" as="sourcePoint" />
            <mxPoint x="86" y="360" as="targetPoint" />
          </mxGeometry>
        </mxCell>
        <mxCell id="wuD5THcL1bPiLJI8QyXi-21" value="Mostrar listado eventos" style="rounded=1;whiteSpace=wrap;html=1;arcSize=40;fontColor=#000000;fillColor=#ffffc0;strokeColor=#ff0000;" vertex="1" parent="wuD5THcL1bPiLJI8QyXi-15">
          <mxGeometry x="34" y="130" width="120" height="50" as="geometry" />
        </mxCell>
        <mxCell id="wuD5THcL1bPiLJI8QyXi-32" style="edgeStyle=orthogonalEdgeStyle;rounded=0;orthogonalLoop=1;jettySize=auto;html=1;exitX=0.5;exitY=1;exitDx=0;exitDy=0;entryX=0.5;entryY=0;entryDx=0;entryDy=0;strokeColor=light-dark(#ff0000, #ededed);" edge="1" parent="wuD5THcL1bPiLJI8QyXi-15" source="wuD5THcL1bPiLJI8QyXi-27" target="wuD5THcL1bPiLJI8QyXi-19">
          <mxGeometry relative="1" as="geometry" />
        </mxCell>
        <mxCell id="wuD5THcL1bPiLJI8QyXi-27" value="Redirigir a detalles de evento" style="rounded=1;whiteSpace=wrap;html=1;arcSize=40;fontColor=#000000;fillColor=#ffffc0;strokeColor=#ff0000;" vertex="1" parent="wuD5THcL1bPiLJI8QyXi-15">
          <mxGeometry x="76" y="270" width="174" height="50" as="geometry" />
        </mxCell>
        <mxCell id="wuD5THcL1bPiLJI8QyXi-33" style="edgeStyle=orthogonalEdgeStyle;rounded=0;orthogonalLoop=1;jettySize=auto;html=1;exitX=1;exitY=0.5;exitDx=0;exitDy=0;entryX=0.5;entryY=0;entryDx=0;entryDy=0;strokeColor=light-dark(#ff0000, #ededed);" edge="1" parent="wuD5THcL1bPiLJI8QyXi-1" source="wuD5THcL1bPiLJI8QyXi-7" target="wuD5THcL1bPiLJI8QyXi-16">
          <mxGeometry relative="1" as="geometry" />
        </mxCell>
      </root>
    </mxGraphModel>
  </diagram>
</mxfile>
